<!-- <?xml version="1.0" standalone="no"?> -->
<!-- <!DOCTYPE svg PUBLIC "-//W3C//DTD SVG 20010904//EN" -->
 <!-- "http://www.w3.org/TR/2001/REC-SVG-20010904/DTD/svg10.dtd"> -->
<svg 
xmlns="http://www.w3.org/2000/svg"
 width="84.000000pt" height="87.000000pt" 
 viewBox="0 0 84.000000 87.000000"
 preserveAspectRatio="xMidYMid meet">
<!-- <metadata> -->
<!-- Created by potrace 1.10, written by Peter Selinger 2001-2011 -->
<!-- </metadata> -->
<g transform="translate(0.000000,87.000000) scale(0.100000,-0.100000)"
fill="ffffff"
 stroke="none">
<path d="M124 820 c-25 -37 -26 -44 -16 -78 10 -31 9 -42 -8 -72 -54 -95 -64
-125 -64 -195 0 -56 4 -78 22 -107 22 -36 45 -52 56 -41 12 12 6 47 -11 65
-12 14 -16 37 -16 92 1 76 8 98 53 156 38 50 40 62 19 109 -23 51 -9 62 46 35
35 -16 41 -16 108 0 143 33 227 13 289 -69 21 -28 41 -61 45 -75 9 -36 -27
-91 -78 -118 -51 -27 -90 -62 -83 -73 6 -11 97 34 146 73 l38 29 20 -33 c36
-59 63 -157 62 -228 0 -71 -16 -121 -56 -173 -17 -22 -23 -40 -19 -55 7 -27
-5 -28 -60 -3 -23 10 -69 22 -102 26 -143 17 -244 75 -320 184 -32 47 -45 52
-45 16 0 -95 140 -212 286 -240 43 -8 99 -20 124 -26 87 -21 129 -20 150 1 11
11 20 31 20 45 0 13 11 40 24 60 56 82 61 260 12 370 -15 32 -36 71 -45 85
-10 14 -21 40 -25 59 -15 79 -104 179 -179 199 -51 14 -154 8 -200 -12 -38
-15 -40 -15 -81 9 -60 35 -81 32 -112 -15z"/>
<path d="M315 345 c-16 -8 -40 -14 -52 -15 -17 0 -23 -6 -23 -21 0 -19 4 -21
32 -15 43 8 101 38 106 54 5 16 -25 14 -63 -3z"/>
</g>
</svg>
